<?xml version="1.0" encoding="iso-8859-1"?>
<!-- Uploaded to: SVG Repo, www.svgrepo.com, Generator: SVG Repo Mixer Tools -->
<svg height="800px" width="800px" version="1.1" id="Layer_1" xmlns="http://www.w3.org/2000/svg" xmlns:xlink="http://www.w3.org/1999/xlink" 
	 viewBox="0 0 512 512" xml:space="preserve">
<path style="fill:#DF4D60;" d="M405.362,427.241l21.817,48.524c0,13.512-10.956,24.456-24.456,24.456
	c-13.5,0-24.456-10.944-24.456-24.456c0,13.512-10.944,24.456-24.456,24.456c-13.5,0-24.456-10.944-24.456-24.456
	c0,13.512-10.944,24.456-24.444,24.456c-13.512,0-24.456-10.944-24.456-24.456c0,13.512-10.956,24.456-24.456,24.456
	c-13.512,0-24.456-10.944-24.456-24.456c0,13.512-10.944,24.456-24.456,24.456c-13.5,0-24.456-10.944-24.456-24.456
	c0,13.512-10.944,24.456-24.444,24.456c-13.512,0-24.456-10.944-24.456-24.456c0,13.512-10.956,24.456-24.456,24.456
	c-13.512,0-24.456-10.944-24.456-24.456l21.817-48.524l2.639,1.19h293.451L405.362,427.241z"/>
<polygon style="fill:#FFF3E6;" points="377.843,366.03 405.362,427.241 402.724,428.431 109.273,428.431 106.634,427.241 
	134.153,366.03 135.096,366.454 376.901,366.454 "/>
<path style="fill:#DF4D60;" d="M353.658,312.229l24.185,53.801l-0.942,0.424H135.096l-0.942-0.424l24.185-53.801
	c1.154-2.745,2.227-5.513,3.228-8.293l1.767,0.53h185.318l1.779-0.53C351.432,306.715,352.504,309.484,353.658,312.229z"/>
<path style="fill:#FFF3E6;" d="M350.43,303.935l-1.779,0.53H163.333l-1.767-0.53c7.163-19.826,10.685-40.631,10.567-61.447h167.73
	C339.745,263.304,343.268,284.109,350.43,303.935z"/>
<path style="fill:#DF4D60;" d="M372.012,123.318l-20.286,56.157l-1.284,3.546c-6.95,19.249-10.473,39.358-10.579,59.468h-167.73
	c-0.106-20.109-3.628-40.218-10.579-59.468l-1.284-3.546l-20.286-56.157h67.101c0,27.013,21.9,48.912,48.912,48.912
	s48.912-21.9,48.912-48.912C304.911,123.318,372.012,123.318,372.012,123.318z"/>
<g>
	<path style="fill:#2E1C10;" d="M109.273,512c9.417,0,18.005-3.613,24.456-9.524c6.451,5.91,15.039,9.524,24.456,9.524
		c9.414,0,17.998-3.613,24.447-9.522c6.451,5.909,15.038,9.522,24.455,9.522s18.005-3.613,24.456-9.524
		c6.451,5.91,15.039,9.524,24.456,9.524c9.417,0,18.005-3.613,24.456-9.524c6.451,5.91,15.039,9.524,24.456,9.524
		c9.414,0,17.998-3.613,24.447-9.522c6.451,5.909,15.038,9.522,24.455,9.522s18.005-3.613,24.456-9.524
		c6.451,5.91,15.039,9.524,24.456,9.524c19.981,0,36.237-16.256,36.237-36.237c0-0.031-0.005-0.061-0.005-0.092
		c-0.002-0.27-0.02-0.541-0.041-0.813c-0.009-0.126-0.013-0.254-0.027-0.379c-0.025-0.227-0.065-0.452-0.104-0.68
		c-0.028-0.17-0.052-0.342-0.087-0.509c-0.035-0.161-0.082-0.322-0.124-0.482c-0.059-0.229-0.117-0.457-0.19-0.681
		c-0.037-0.113-0.084-0.225-0.124-0.338c-0.094-0.263-0.192-0.523-0.303-0.776c-0.012-0.027-0.02-0.055-0.032-0.082l-73.459-163.4
		c-1.013-2.415-2.005-4.968-2.953-7.6c-6.658-18.432-9.978-37.735-9.866-57.383c0.091-17.123,2.816-34.007,8.086-50.271h67.449
		c6.505,0,11.78-5.275,11.78-11.78v-2.014c0-36.915-30.032-66.948-66.947-66.948h-99.184V83.453c0-0.067-0.009-0.133-0.011-0.2
		c0.001-0.067,0.011-0.133,0.011-0.2c0-6.505-5.275-11.78-11.78-11.78c-13.154,0-23.855-10.701-23.855-23.855
		s10.701-23.855,23.855-23.855c13.16,0,23.867,10.701,23.867,23.855c0,6.505,5.275,11.78,11.78,11.78
		c6.505,0,11.78-5.275,11.78-11.78C308.479,21.271,287.203,0,261.052,0c-26.145,0-47.416,21.271-47.416,47.416
		c0,22.08,15.171,40.683,35.636,45.934v18.187H139.983c-36.915,0-66.947,30.033-66.947,66.948v2.014
		c0,6.505,5.275,11.78,11.78,11.78h67.449c5.272,16.269,7.997,33.151,8.086,50.275c0.112,19.643-3.208,38.947-9.87,57.39
		c-0.945,2.621-1.937,5.174-2.95,7.588l-73.459,163.4c-0.012,0.027-0.02,0.055-0.032,0.082c-0.112,0.253-0.209,0.515-0.303,0.776
		c-0.04,0.113-0.087,0.225-0.124,0.338c-0.072,0.223-0.13,0.452-0.19,0.681c-0.042,0.16-0.09,0.32-0.124,0.482
		c-0.035,0.167-0.059,0.338-0.087,0.509c-0.039,0.226-0.079,0.452-0.104,0.679c-0.014,0.126-0.018,0.254-0.027,0.381
		c-0.021,0.271-0.039,0.541-0.041,0.81c0,0.032-0.005,0.061-0.005,0.093C73.036,495.744,89.292,512,109.273,512z M402.722,488.439
		c-6.989,0-12.676-5.686-12.676-12.676c0-6.505-5.275-11.78-11.78-11.78s-11.78,5.275-11.78,11.78
		c0,6.989-5.686,12.676-12.676,12.676c-6.99,0-12.677-5.686-12.677-12.676c0-6.505-5.275-11.78-11.78-11.78
		s-11.78,5.275-11.78,11.78c0,6.989-5.681,12.676-12.664,12.676c-6.989,0-12.676-5.686-12.676-12.676
		c0-6.505-5.275-11.78-11.78-11.78s-11.78,5.275-11.78,11.78c0,6.989-5.686,12.676-12.676,12.676s-12.676-5.686-12.676-12.676
		c0-6.505-5.275-11.78-11.78-11.78s-11.78,5.275-11.78,11.78c0,6.989-5.686,12.676-12.676,12.676
		c-6.991,0-12.677-5.686-12.677-12.676c0-6.505-5.275-11.78-11.78-11.78c-6.505,0-11.78,5.275-11.78,11.78
		c0,6.989-5.681,12.676-12.664,12.676c-6.989,0-12.676-5.686-12.676-12.676c0-6.505-5.275-11.78-11.78-11.78
		s-11.78,5.275-11.78,11.78c0,6.989-5.686,12.676-12.676,12.676c-6.271,0-11.479-4.583-12.486-10.572l16.93-37.656h284.563
		l16.93,37.656C414.202,483.857,408.993,488.439,402.722,488.439z M141.58,378.233h228.836l17.271,38.416H124.308L141.58,378.233z
		 M359.824,354.672H152.173l16.911-37.615c0.039-0.086,0.075-0.172,0.113-0.26c0.075-0.18,0.148-0.372,0.224-0.554h86.578
		c6.505,0,11.78-5.275,11.78-11.78s-5.275-11.78-11.78-11.78h-78.561c3.375-12.557,5.439-25.403,6.172-38.415h144.78
		c1.032,18.335,4.7,36.338,10.958,53.658c1.1,3.056,2.262,6.04,3.454,8.872c0.036,0.087,0.074,0.173,0.113,0.26L359.824,354.672z
		 M414.291,168.719h-46.157l11.878-32.874C396.939,139.014,410.439,152.039,414.291,168.719z M291.203,135.098
		c-4.937,14.715-18.848,25.352-35.205,25.352s-30.267-10.635-35.205-25.352C220.794,135.098,291.203,135.098,291.203,135.098z
		 M196.462,135.098c5.5,27.845,30.099,48.912,59.535,48.912s54.035-21.066,59.535-48.912h39.698l-15.869,43.921
		c-6.037,16.719-9.672,34.058-10.852,51.689H183.486c-1.182-17.633-4.816-34.973-10.856-51.698l-15.866-43.912H196.462z
		 M131.983,135.845l11.878,32.874H97.705C101.557,152.039,115.056,139.014,131.983,135.845z"/>
	<path style="fill:#2E1C10;" d="M306.124,292.155c-6.515,0-11.78,5.278-11.78,11.78c0,6.503,5.266,11.78,11.78,11.78
		c6.503,0,11.78-5.278,11.78-11.78C317.904,297.432,312.626,292.155,306.124,292.155z"/>
</g>
</svg>